<?xml version="1.0" encoding="UTF-8"?>
<svg id="Layer_1" data-name="Layer 1" xmlns="http://www.w3.org/2000/svg" version="1.1" viewBox="0 0 514.49 458.05">
  <defs>
    <style>
      .cls-1 {
        fill: #6a9ed9;
      }

      .cls-1, .cls-2, .cls-3, .cls-4, .cls-5, .cls-6, .cls-7, .cls-8, .cls-9, .cls-10, .cls-11, .cls-12, .cls-13 {
        stroke-width: 0px;
      }

      .cls-2 {
        fill: #030303;
      }

      .cls-3 {
        fill: #86bcc7;
      }

      .cls-4 {
        fill: #fefefd;
      }

      .cls-5 {
        fill: #0a090a;
      }

      .cls-6 {
        fill: #85bac7;
      }

      .cls-7 {
        fill: #85bbc6;
      }

      .cls-8 {
        fill: #a6a4d4;
      }

      .cls-9 {
        fill: #3375b8;
      }

      .cls-10 {
        fill: #f5f6fc;
      }

      .cls-11 {
        fill: #0b0b0e;
      }

      .cls-12 {
        fill: #f7e3ca;
      }

      .cls-13 {
        fill: #cc61cf;
      }
    </style>
  </defs>
  <g id="_5ey5Ub.tif" data-name="5ey5Ub.tif">
    <g>
      <path class="cls-2" d="M85.05,320.99c-5.97-.31-11.2-2.89-16.25-5.69-27.94-15.5-50.27-36.92-67.19-64.02-1.92-3.08-2.44-5.53.22-8.64,52.16-60.89,105.36-120.81,163.25-176.38,21.3-20.44,43.73-39.47,67.97-56.53,19.54-13.75,38.12-11.76,57.57-1.33,14.9,7.99,27.59,18.98,40.45,29.74,46.19,38.65,88.14,81.83,131.64,123.35,16.33,15.59,32.32,31.53,48.65,47.12,2.73,2.6,3.6,5.4,2.87,8.6-4.89,21.25-12.15,41.54-27.34,57.81-11.01,11.79-22.97,22.63-37.14,30.7-1.98,1.13-3.94,2.26-6.35,1.5-.47-.32-.94-.64-1.41-.96-.07-8.2-.02-16.4-.26-24.59-.1-3.44.84-5.87,3.41-8.39,11.04-10.79,14.78-24.07,10.79-38.88-4.04-15-14.03-24.54-29.23-28.46-10.37-2.68-20.02-.22-29.48,3.85-2.88-5.76-5.63-11.59-8.67-17.26-16.8-31.38-37.81-59.9-59.59-87.91-1.6-2.06-3.37-2.52-5.78-2.5-11.45.09-22.91-.14-34.35.15-3.77.1-4.53-1.07-4.4-4.56.28-7.25.08-14.51.08-21.76q0-9.3,9.29-9.7c.21,0,.41-.37.8-.74-7.2-7.37-14.51-14.56-23.49-19.85-2.65-1.56-5.57-2.52-8.3-1.38-11.14,4.65-19.22,13.23-28.5,22.06,9.72,0,18.1.12,26.47-.06,2.79-.06,3.52.79,3.47,3.52-.16,9.35-.27,18.71.05,28.05.13,3.78-1.08,4.45-4.57,4.41-17.74-.18-35.48-.03-53.22-.13-2.66-.02-4.37.75-6.03,2.92-8.05,10.48-15.78,21.19-23.19,32.14-19.59,28.91-34.16,60.54-49.73,91.63-3.81,7.61-7.86,15.12-10.55,23.25-.64,1.09-1.35,2.15-1.92,3.28-10.86,21.49-20.22,43.67-30.04,65.64Z"/>
      <path class="cls-13" d="M85.05,320.99c9.82-21.97,19.19-44.15,30.04-65.64.57-1.13,1.28-2.19,1.92-3.28,3.58,2.65,7.72,3.77,12,4.72,20.68,4.62,41.45,8.64,62.51,11.16,15.94,1.91,31.88,3.64,47.89,4.95,14.41,1.17,28.25,1.41,40.74-7.27,1.44-1,3.12-1.68,4.7-2.48q15.12-7.58,27.11,4.51c1.63,1.65,3.24,3.14,5.71,3.18-2.45,2.23-3.22,4.91-1.32,7.72,1.86,2.74,4.57,1.74,7.02.83,8.7-3.23,17.37-6.52,26.05-9.79,11.31.32,22.14-2.5,33.04-4.94,2.71,2.74,4.25,6.42,7.29,8.9,1.24,1.02,1.28,2.5,1.28,3.98-.07,22.5-.13,44.99-.18,67.49-11.01,1.01-22,2.38-33.03,2.93-16.35.82-32.68,2.29-49.07,2.16-2.99.01-5.98.03-8.97.04-12.76.58-25.51,1.33-38.27,1.69-10.09.29-20.19.1-30.29.12-2.81-.25-5.62-.5-8.42-.75-14.81.12-29.57-.79-44.29-2.23-15.16-1.49-30.29-3.18-45.22-6.48-15.21-3.36-30.52-6.3-45.38-11.06-6.18-1.98-6.15-2.05-3.52-8.15.31-.73.46-1.53.68-2.3Z"/>
      <path class="cls-9" d="M146.17,367.49c22.98.04,45.96.08,68.94.12-2.66,5.05-6.82,8.94-10.35,13.32-4.96,6.16-3.29,13.03,3.96,16.11,3.19,1.35,6.58,1.58,9.94,1.88,8.27.76,16.49.22,24.37-2.46,7.62-2.59,8.84-8.79,3.21-14.58-2.71-2.79-6.11-4.02-9.79-4.9-4.99-1.2-10.11-.62-15.75-.93,2.15-3.42,3.76-6.3,6.18-8.65,4.66,0,9.32,0,13.98.02,17.99.09,35.98.19,53.96.29-1.16,3.01-2.37,5.92-5.27,7.83-4.01,2.64-6.83,6.2-5.8,11.29,1.07,5.29,5.3,7.48,10.09,8.5,7.17,1.52,14.42,1.23,21.66.41,4.19-.47,8.33-1.14,11.96-3.46,3.94-2.51,4.87-6.37,2.54-10.45-1.75-3.07-4.45-5.08-7.66-6.4-4.4-1.81-9.01-2.26-13.74-2.17-6.43.13-6.43.04-3.39-5.91,22.48.04,44.96.08,67.45.12-2.99,5.94-7.49,11.23-7.79,18.31,0,0,.06-.02.06-.02l-.92,1.01c-1.92,5-2.2,10.2-1.89,15.48-.06,2.09.28,4.14.44,6.21.54,6.85,4.12,12.78,5.51,19.35-7.89-.08-15.78-.22-23.68-.22-64.62.01-129.23.05-193.85.09,2.69-7.84,5.9-15.51,6.27-24,.58-13.33-3.68-25.15-10.65-36.21Z"/>
      <path class="cls-9" d="M390.85,345.02c.06-22.5.12-44.99.19-67.49,0-1.48-.04-2.96-1.28-3.98-3.04-2.48-4.58-6.16-7.29-8.9-1.39-3.65-2.77-7.31-4.16-10.96-.3-3.65-.59-7.3-.89-10.95,1.01-8.05,3.19-15.63,8.24-22.21,3.27-4.25,7.61-7.26,11.56-10.74,9.46-4.07,19.11-6.53,29.48-3.85,15.2,3.92,25.19,13.47,29.23,28.46,3.99,14.81.25,28.09-10.79,38.88-2.58,2.52-3.52,4.95-3.41,8.39.25,8.19.2,16.39.27,24.59.12.32.23.64.34.97-.08,14.2-.16,28.41-.24,42.61-1.54.46-2.85-.36-4.17-.86-9.85-3.75-19.89-4.73-30.32-2.93-5.77.99-10.85,3.97-16.54,5.03-.08-2.02-.15-4.04-.23-6.06Z"/>
      <path class="cls-3" d="M416.4,456.65c-15.43-1.12-29-6.44-39.66-17.98-3.13-3.39-5.79-7.2-8.66-10.82-1.39-6.57-4.97-12.49-5.51-19.35-.16-2.07-.5-4.12-.44-6.21.27-.39.6-.75.8-1.18,11.21-24.52,40.38-32,61.57-16.69,24.51,17.71,22.71,49.09.96,66.96-2.31,1.9-4.89,3.47-7.34,5.19-.57.03-1.14.05-1.71.08ZM432.89,404.61c-.01-7.42-6.03-13.71-13.18-13.77-7.37-.06-13.89,6.63-13.98,14.35-.09,7.52,6.13,13.73,13.72,13.7,8.15-.03,13.45-5.67,13.43-14.27Z"/>
      <path class="cls-3" d="M100.7,456.46c-22.08.33-43.43-14.27-51.36-35.11-.34-.9-.74-1.78-1.11-2.67-1.59-5.4-2.9-10.84-2.68-16.52,3.26-5.88,6.52-11.79,11.96-16.04,12.66-9.9,26.55-12.02,41.59-6.42,18.1,6.75,30.93,28.18,25.05,48.36-3.76,12.89-11.5,22.34-23.45,28.39ZM116.26,404.73c.02-7.44-5.9-13.72-13.07-13.88-7.31-.16-13.92,6.51-14.1,14.23-.17,7.48,6.07,13.81,13.61,13.82,8.17.01,13.53-5.6,13.55-14.16Z"/>
      <path class="cls-6" d="M150.55,427.71c-5,6.37-9.28,13.36-16.29,17.92-5.63,3.66-11.1,7.58-18.15,7.99.7-.87,1.38-1.76,2.1-2.61,9.78-11.51,14.7-24.25,12.64-39.83-3.43-25.88-30.31-46.11-58.1-39.2-9.55,2.38-16.97,8.07-24.49,13.8,1.62-11.3,8.03-19.98,16.31-27.01,23.15-19.67,56.01-17.85,77.08,3.79,1.56,1.6,3.02,3.29,4.52,4.93,6.97,11.06,11.23,22.88,10.65,36.21-.37,8.5-3.58,16.16-6.27,24Z"/>
      <path class="cls-7" d="M391.07,351.08c5.7-1.05,10.77-4.03,16.54-5.03,10.43-1.8,20.47-.81,30.32,2.93,1.32.5,2.63,1.32,4.17.86,2.36,3.01,6.09,4.09,9,6.36,18.97,14.75,26.55,37.67,19.9,60.65-.26.91-.31,1.89-.45,2.84-3.02,5.77-5.53,11.86-9.93,16.79-7.57,8.47-16.11,15.46-27.89,17.14.7-.87,1.36-1.78,2.11-2.61,10.11-11.4,14.61-24.29,12.62-39.8-3.3-25.72-30.24-46.26-58.1-39.24-9.57,2.41-17.04,7.97-24.49,13.84.3-7.08,4.8-12.38,7.79-18.31,5.25-6.46,11.97-11.28,18.4-16.42Z"/>
      <path class="cls-11" d="M226.88,367.41c-2.42,2.34-4.04,5.23-6.18,8.65,5.65.31,10.77-.26,15.75.93,3.68.88,7.08,2.11,9.79,4.9,5.63,5.79,4.41,11.99-3.21,14.58-7.88,2.68-16.1,3.22-24.37,2.46-3.35-.31-6.75-.53-9.94-1.88-7.26-3.08-8.93-9.95-3.96-16.11,3.53-4.38,7.69-8.27,10.35-13.32,4.44-4.59,6.66-10.22,7.68-16.4,2.81.25,5.61.5,8.42.75.28,5.63-3.08,10.25-4.33,15.45Z"/>
      <path class="cls-1" d="M431.75,454.55c-.82.06-1.55.29-1.93,1.12-.92.04-1.83.08-2.75.12-.85-.19-1.58-.06-2.07.74-2.29.01-4.59.03-6.88.04,2.45-1.72,5.03-3.29,7.34-5.19,21.75-17.87,23.55-49.25-.96-66.96-21.19-15.31-50.36-7.83-61.57,16.69-.19.43-.53.79-.8,1.18-.31-5.27-.03-10.48,1.89-15.48.31-.34.62-.67.92-1.01,0,0-.06.02-.06.02,7.44-5.88,14.91-11.44,24.49-13.84,27.87-7.01,54.8,13.52,58.1,39.24,1.99,15.51-2.52,28.4-12.62,39.8-.74.84-1.41,1.74-2.11,2.61,0,0,.01-.02.01-.02-.34.31-.67.63-1.01.94Z"/>
      <path class="cls-1" d="M48.26,385.78c7.52-5.73,14.93-11.42,24.49-13.8,27.8-6.91,54.67,13.32,58.1,39.2,2.07,15.58-2.85,28.32-12.64,39.83-.72.85-1.4,1.74-2.1,2.61,0,0,.01-.01.01-.01-.34.31-.67.63-1.01.94-4.73,1.2-9.47,2.34-14.42,1.91,11.95-6.05,19.69-15.5,23.45-28.39,5.89-20.19-6.95-41.62-25.05-48.36-15.04-5.61-28.93-3.48-41.59,6.42-5.45,4.26-8.7,10.16-11.96,16.04-.51-5.25.18-10.35,1.89-15.32.28-.35.57-.7.85-1.05h-.03Z"/>
      <path class="cls-8" d="M424.99,456.53c.49-.8,1.22-.93,2.07-.74-.39,1.1-.8,2.12-2.07.74Z"/>
      <path class="cls-7" d="M442.34,307.23c-.11-.32-.23-.65-.34-.97.47.32.94.64,1.4.96-.35,0-.71,0-1.06,0Z"/>
      <path class="cls-6" d="M48.29,385.79c-.28.35-.57.7-.85,1.05.28-.35.57-.7.85-1.05Z"/>
      <path class="cls-12" d="M397.22,209.8c-3.95,3.48-8.29,6.49-11.56,10.74-5.06,6.58-7.24,14.16-8.24,22.21-1.93,1.13-3.88,2.23-5.8,3.38-17.04,10.3-34.82,18.99-53.95,24.71-2.47-.04-4.08-1.53-5.71-3.18q-11.97-12.1-27.11-4.51c-1.58.79-3.26,1.47-4.7,2.48-12.49,8.68-26.32,8.44-40.74,7.27-16.01-1.3-31.95-3.04-47.89-4.95-21.06-2.52-41.83-6.54-62.51-11.16-4.28-.96-8.43-2.07-12-4.72,2.69-8.13,6.74-15.64,10.55-23.25,15.57-31.09,30.15-62.72,49.73-91.63,7.41-10.94,15.14-21.65,23.19-32.14,1.66-2.16,3.37-2.93,6.03-2.92,17.74.1,35.48-.05,53.22.13,3.49.04,4.69-.63,4.57-4.41-.32-9.34-.21-18.7-.05-28.05.05-2.73-.68-3.58-3.47-3.52-8.37.18-16.75.06-26.47.06,9.28-8.83,17.36-17.41,28.5-22.06,2.73-1.14,5.65-.18,8.3,1.38,8.97,5.29,16.28,12.48,23.49,19.85-.39.37-.59.73-.8.74q-9.29.41-9.29,9.7c0,7.26.2,14.52-.08,21.76-.13,3.49.62,4.65,4.4,4.56,11.44-.29,22.9-.06,34.35-.15,2.41-.02,4.18.44,5.78,2.5,21.78,28.01,42.79,56.53,59.59,87.91,3.04,5.67,5.78,11.51,8.67,17.26ZM207.69,201.9c19.6.01,35.18-15.03,35.26-34.03.08-19.11-15.44-34.68-34.61-34.71-19.78-.03-35.09,14.82-35.11,34.06-.02,19.63,14.92,34.66,34.46,34.68ZM257.48,167.23c-.02,19.13,14.95,34.61,33.52,34.67,19.43.06,35.17-15.16,35.23-34.09.06-19.28-15.29-34.64-34.64-34.65-18.79-.01-34.1,15.27-34.11,34.07ZM248.55,233.67c4.72-.29,9.65-1.94,13.56-5.93,3.32-3.39,4.15-8.22,1.96-11.91-2.53-4.28-6.63-5.09-10.89-3.69-4.03,1.32-7.52,1.37-11.56-.21-3.54-1.38-7.75-1.63-10.42,2.34-2.47,3.66-1.64,7.35.44,10.85,3.63,6.12,9.33,8.47,16.91,8.56Z"/>
      <path class="cls-11" d="M308.74,350.11c.15,6.03-2.08,11.57-3.51,17.27-3.04,5.94-3.04,6.03,3.39,5.9,4.73-.09,9.34.36,13.74,2.17,3.21,1.32,5.9,3.33,7.66,6.4,2.33,4.08,1.4,7.93-2.54,10.45-3.64,2.32-7.77,2.98-11.96,3.46-7.24.82-14.49,1.11-21.66-.41-4.79-1.02-9.02-3.2-10.09-8.5-1.03-5.09,1.79-8.65,5.8-11.29,2.9-1.91,4.11-4.82,5.27-7.83,3.61-5.3,4.67-11.33,4.95-17.57,2.99-.01,5.98-.03,8.97-.04Z"/>
      <path class="cls-5" d="M317.67,270.84c19.14-5.72,36.91-14.42,53.95-24.71,1.91-1.16,3.86-2.26,5.8-3.38.3,3.65.59,7.3.89,10.95-9.63,5.3-19.25,10.61-28.88,15.91-8.68,3.27-17.36,6.56-26.05,9.79-2.45.91-5.16,1.9-7.02-.83-1.9-2.8-1.14-5.49,1.32-7.72Z"/>
      <path class="cls-12" d="M349.43,269.6c9.63-5.3,19.25-10.61,28.88-15.91,1.38,3.66,2.77,7.31,4.16,10.96-10.89,2.44-21.73,5.26-33.04,4.94Z"/>
      <path class="cls-7" d="M364.94,385.79c-.31.34-.62.67-.92,1.01.31-.34.62-.67.92-1.01Z"/>
      <path class="cls-6" d="M115.11,454.55c.34-.31.67-.63,1.01-.94-.34.31-.67.63-1.01.94Z"/>
      <path class="cls-10" d="M432.89,404.61c.02,8.61-5.28,14.24-13.43,14.27-7.59.03-13.81-6.17-13.72-13.7.09-7.72,6.61-14.41,13.98-14.35,7.15.06,13.16,6.35,13.18,13.77Z"/>
      <path class="cls-10" d="M116.26,404.73c-.02,8.57-5.38,14.17-13.55,14.16-7.55,0-13.79-6.34-13.61-13.82.18-7.72,6.78-14.39,14.1-14.23,7.17.16,13.08,6.44,13.07,13.88Z"/>
      <path class="cls-7" d="M431.75,454.55c.34-.31.67-.63,1.01-.94-.34.31-.67.63-1.01.94Z"/>
      <path class="cls-4" d="M207.69,201.9c-19.54-.01-34.48-15.05-34.46-34.68.02-19.24,15.33-34.1,35.11-34.06,19.17.03,34.69,15.6,34.61,34.71-.08,19-15.66,34.04-35.26,34.03ZM193.63,148.06c-.45-2.17-1.59-4.05-4.23-4.19-2.6-.14-4.33,1.32-4.53,3.93-.23,2.88,1.39,4.6,4.24,4.68,2.66.07,3.97-1.67,4.52-4.42Z"/>
      <path class="cls-4" d="M257.48,167.23c.02-18.8,15.32-34.08,34.11-34.07,19.34.01,34.7,15.38,34.64,34.65-.06,18.92-15.8,34.15-35.23,34.09-18.57-.06-33.54-15.54-33.52-34.67ZM272.13,152.56c2.67-.16,4.42-1.51,4.59-4.07.19-2.83-1.49-4.6-4.33-4.63-2.6-.03-4.2,1.57-4.27,4.21-.08,2.67,1.57,4.02,4.02,4.49Z"/>
      <path class="cls-5" d="M248.55,233.67c-7.58-.09-13.28-2.44-16.91-8.56-2.08-3.5-2.9-7.19-.44-10.85,2.68-3.97,6.89-3.72,10.42-2.34,4.04,1.58,7.54,1.54,11.56.21,4.25-1.4,8.35-.59,10.89,3.69,2.19,3.7,1.37,8.52-1.96,11.91-3.91,3.99-8.84,5.64-13.56,5.93ZM254.47,222.82c1.84.37,3.65.65,3.94-1.93.16-1.43-.27-2.81-1.94-2.52-2.03.35-4.91.11-5.19,3-.22,2.24,2.03,1.17,3.18,1.45ZM241.24,222.16c.52-.35,3.32,1.25,3.17-.82-.2-2.71-3.47-2.55-5.62-3.17-.99-.29-2.59-.3-2.28,1.37.36,1.94,1.33,3.68,4.73,2.63Z"/>
      <path class="cls-11" d="M193.63,148.06c-.55,2.75-1.86,4.5-4.52,4.42-2.85-.08-4.47-1.81-4.24-4.68.21-2.61,1.93-4.07,4.53-3.93,2.64.14,3.77,2.02,4.23,4.19Z"/>
      <path class="cls-11" d="M272.13,152.56c-2.45-.48-4.09-1.82-4.02-4.49.08-2.64,1.67-4.24,4.27-4.21,2.84.03,4.52,1.81,4.33,4.63-.17,2.56-1.92,3.91-4.59,4.07Z"/>
      <path class="cls-12" d="M254.47,222.82c-1.15-.27-3.4.8-3.18-1.45.28-2.89,3.16-2.65,5.19-3,1.67-.29,2.1,1.09,1.94,2.52-.3,2.58-2.1,2.3-3.94,1.93Z"/>
      <path class="cls-12" d="M241.24,222.16c-3.39,1.05-4.36-.69-4.73-2.63-.31-1.67,1.29-1.66,2.28-1.37,2.14.62,5.42.46,5.62,3.17.15,2.08-2.65.47-3.17.82Z"/>
    </g>
  </g>
</svg>