<?xml version="1.0" encoding="UTF-8"?>
<svg id="Layer_1" data-name="Layer 1" xmlns="http://www.w3.org/2000/svg" viewBox="0 0 1028.92 464.26">
  <defs>
    <style>
      .cls-1 {
        fill: #2e3239;
      }

      .cls-1, .cls-2, .cls-3, .cls-4, .cls-5, .cls-6 {
        stroke-width: 0px;
      }

      .cls-2 {
        fill: #ffc7f1;
      }

      .cls-3 {
        fill: #d3a762;
      }

      .cls-4 {
        fill: #f6e3c7;
      }

      .cls-5 {
        fill: #daafe3;
      }

      .cls-6 {
        fill: #fff;
      }
    </style>
  </defs>
  <path class="cls-1" d="M410.96,384.35c-5.9,7.57-8.31,16.99-7.72,26.53.62,10.14,4.15,19.64,7.79,29.01l6.15-6.15c-5.94-1.62-12.24-2.27-18.38-1.69s-13.17,1.72-17.16,6.78c-2.31,2.93-3.41,6.33-2.74,10.06.49,2.71,2.17,4.98,4.31,6.63,4.01,3.1,9.38,3.71,14.29,3.41,6.16-.38,12.27-1.67,17.99-4.01,3.3-1.35,6.27-3.21,7.27-6.88.89-3.31-.4-6.71-2.57-9.2-4.43-5.07-12.23-3.83-18.04-2.77-2.88.53-5.72,1.26-8.5,2.2-3.22,1.09-6.46,2.36-8.43,5.3-2.46,3.66-1.73,8.74,1.93,11.29,2.79,1.94,6.91,1.6,10.14,1.3,6.83-.62,13.42-2.64,19.34-6.14,2.81-1.66,3.25-5.53,1.01-7.85-2.03-2.1-4.73-2.7-7.53-2.87-2.41-.15-4.82-.23-7.23-.34-4.9-.23-9.8-.46-14.7-.68-2.62-.12-5.12,2.39-5,5,.13,2.81,2.2,4.87,5,5,4.41.21,8.82.41,13.23.62,2.12.1,4.25.2,6.37.3.78.04,2.34-.17,3.07.17-.65-.1-.79-.11-.41-.04.18.03.36.08.53.13.53.18.46.15-.21-.09-.52-.46-.59-.49-.2-.11l1.01-7.85c-.94.55-1.89,1.08-2.87,1.55-.46.22-.92.43-1.38.64-.18.08-.89.34,0,0-.27.1-.54.21-.81.32-2.03.77-4.13,1.37-6.26,1.8-.57.11-1.14.21-1.71.31-.08.01-.8.12-.2.03.66-.09-.26.03-.41.04-1.08.12-2.17.19-3.25.21-.58.01-1.16.02-1.74,0-.27,0-.54-.02-.81-.03-.23,0-.62-.19-.09,0,.86.31-.56-.46.19.04.24.16.51.24.73.45.3.27.58.7.7,1.1l.09.69c.01-.44,0-.44-.05,0-.1.73-.01.16.04.01-.41,1.11-.27.54-.09.29-.14.19-.74.71-.09.18.11-.09.58-.39.07-.08-.57.35.61-.3.78-.39.83-.44-.03-.03-.14.05.26-.17.64-.24.93-.35,2.18-.78,4.4-1.44,6.65-1.96,1.05-.25,2.11-.46,3.17-.65.53-.09,1.06-.18,1.6-.26.99-.16.25-.04.04-.01.37-.05.75-.09,1.12-.13,1.04-.11,2.08-.19,3.13-.15.21,0,.42.04.62.04.73,0-.8-.22-.11-.01.19.06.4.08.6.13.05.01,1.15.44.55.15s.12.13.28.19c.54.21-.45-.25-.35-.3.05-.02.41.4.48.46.59.54-.31-.18-.17-.22.02,0,.24.4.25.43.29.61-.33-.92-.12-.29.01.04.12.47.13.47-.27-.03,0-1.17-.07-.23-.05.67.21-1.06.04-.41-.14.52.22-.48.21-.46-.31.7.05-.03.16-.18-.48.65,0-.33.17-.1.02.02-1.1.6-1.13.62-.49.27.32-.12.35-.13-.35.16-.72.29-1.08.43-2.24.86-4.53,1.57-6.87,2.12-1.05.25-2.12.46-3.18.64-.31.05-.61.1-.92.15-.06,0-.82.11-.25.04.62-.08-.35.04-.49.05-.38.04-.77.08-1.15.12-1.95.17-3.86.22-5.81.09-.9-.06,1.11.23-.14-.02-.38-.08-.75-.14-1.12-.23-.42-.1-.83-.22-1.24-.36-.15-.05-.3-.13-.45-.16-.58-.12.95.5.19.07-.31-.17-.62-.35-.93-.52-1-.54.5.54-.06,0-.13-.13-.28-.28-.42-.4-.4-.34.03-.4.22.35-.04-.17-.48-.92-.59-.99.14.09.33,1.16.19.37-.02-.12-.06-.34-.11-.44-.25-.48-.04.85.05.23,0-.03.01-.57.01-.57.26.08-.28.98,0,.21.04-.11.16-.71.23-.73s-.47.84-.11.32c.12-.18.28-.74.49-.83-.05.02-.77.84-.07.09.18-.19.36-.37.54-.56.58-.61.08-.11-.09.02.28-.21.58-.4.88-.58.18-.11.36-.21.55-.31,0,0,1.16-.54.55-.28s.25-.08.39-.13c.34-.12.67-.22,1.02-.32,1.19-.35,2.41-.59,3.63-.8.23-.04.46-.08.69-.11,1.46-.24-.56.04.28-.04.7-.07,1.39-.15,2.08-.2,2.55-.19,5.12-.17,7.67.05.31.03.62.06.93.09.19.02,1.26.17.29.02.61.09,1.23.19,1.84.3,1.37.25,2.73.57,4.08.94,3.39.93,7.57-2.48,6.15-6.15-1.69-4.36-3.38-8.72-4.75-13.2-.68-2.23-1.29-4.48-1.77-6.76-.22-1.06-.4-2.13-.59-3.2-.09-.6-.09-.61-.02-.05-.04-.31-.08-.62-.11-.93-.05-.47-.1-.94-.13-1.41-.16-1.96-.18-3.92-.07-5.88.03-.54.07-1.08.12-1.62.03-.27.07-2.01.07-.68,0-.9.33-1.9.53-2.78s.46-1.82.75-2.71c.16-.51.34-1.01.53-1.51.09-.25.19-.5.29-.74-.25.58-.25.61-.03.1.42-.84.82-1.67,1.29-2.48.27-.46.55-.91.85-1.35.12-.18,1.16-1.58.4-.61.85-1.09,1.46-2.09,1.46-3.54,0-1.23-.54-2.69-1.46-3.54-1.79-1.65-5.35-2.2-7.07,0h0Z"/>
  <path class="cls-1" d="M473.66,391.42c.35.4.69.8,1.02,1.21-.79-.98.25.38.38.58.51.76.99,1.55,1.43,2.35.25.46.49.93.71,1.4.11.24.22.48.33.72-.24-.59-.26-.63-.05-.1.33.87.64,1.73.91,2.61s.5,1.79.7,2.69c.12.52.22,1.04.31,1.57.04.25.37,2,.12.65.34,1.88.35,3.89.33,5.79,0,1.07-.06,2.14-.14,3.21-.04.55-.09,1.1-.15,1.65-.02.2-.23,1.83-.08.79-.33,2.35-.79,4.68-1.34,6.98-1.1,4.63-2.54,9.17-3.99,13.71-1.12,3.51,2.58,7.37,6.15,6.15,2.2-.75,4.45-1.36,6.74-1.78.53-.1,1.07-.17,1.61-.27.8-.14-.75.07.05,0,.23-.02.46-.05.69-.08,1.23-.13,2.47-.21,3.71-.25,2.33-.06,4.65.05,6.96.33-.98-.12.28.05.61.11.49.09.98.19,1.46.31.55.14,1.09.31,1.63.48.08.02.74.27.19.05-.62-.25.43.22.55.28.25.13.48.29.73.43.08.05.67.46.15.08s.11.12.23.23c.14.13.27.28.41.41.7.7.02-.06-.05-.11.14.09.34.55.41.65.05.08.4.67.08.09-.34-.62.08.32.13.47.31.88-.18-.92.01.35.09.58-.03-.41.09-.45,0,0-.12.51-.14.59-.13.8.56-.87,0,.02-.1.16-.22.32-.3.49-.21.43.82-.83.15-.22-.2.18-1.03.74-.36.4s-.27.17-.48.3c-.3.18-.68.31-.96.52-.51.37.94-.3.32-.12-.26.07-.51.19-.76.28-.73.24-1.47.43-2.22.58-.24.05-1.44.24-.63.12s-.69.04-.93.06c-2.26.12-4.55.05-6.8-.15-.54-.05-1.08-.12-1.62-.17-.59-.06.09.02.18.03-.31-.04-.61-.09-.92-.14-1.22-.2-2.44-.44-3.64-.72-1.05-.25-2.1-.53-3.14-.84-.52-.16-1.03-.32-1.55-.49-.19-.06-.38-.13-.57-.19-1.1-.36.56.34,0,.01-.46-.27-1.08-.71-.36-.1-.65-.54-.01.05.11.22-.19-.27-.3-.81.11.34-.06-.16-.14-.71-.03.05s.02.09.05-.12c.09-.54-.11.54-.07.54-.15,0,.52-1.17.06-.33-.41.73.35-.41.39-.56-.14.5-.51.69-.13.26.52-.59-.12.33-.24.16,0,0,.5-.29.53-.31.53-.43-.73.19-.08,0,.53-.15,1.05-.28,1.58-.41.71-.18-.84.02-.09.02.21,0,.42-.03.63-.04.56-.03,1.12-.02,1.68-.01,1.15.03,2.3.11,3.45.22.56.05,1.11.11,1.66.18,1.01.12.3.04.09.01.32.05.63.09.94.15,1.18.19,2.35.42,3.52.68,1.09.24,2.17.51,3.24.82.47.13.95.27,1.42.42.12.04.6.14.72.25-.43-.37-.55-.27.02.04.04.02.49.26.49.29-.45-.38-.54-.45-.27-.21.1.08.18.17.27.26.55.45-.56-.74-.19-.19.32.48-.37-1.1-.11-.1-.1-.37-.04-.66-.05-1.02.09-.45.08-.46-.01-.04l.25-.62c.18-.32.49-.68.78-.88.4-.27.67-.13.14-.15-.84-.03-.04.08.2-.02-.29.13-.79.07-1.1.09-.59.04-1.18.06-1.77.08-1.26.03-2.51,0-3.76-.1-.59-.04-1.18-.11-1.76-.17.99.1.22.03.01,0-.36-.06-.73-.12-1.09-.18-1.24-.23-2.46-.51-3.67-.85-1.14-.32-2.26-.69-3.37-1.11-.28-.11-.55-.21-.82-.32.67.27.13.05-.23-.11-.61-.27-1.2-.57-1.8-.87l1.01,7.85c.38-.4.3-.38-.24.06.48-.26.4-.25-.24.03.18-.2.84-.22,1.07-.29,1.1-.31-.9.07.14-.03.65-.06,1.3-.14,1.95-.21,2.11-.23,4.23-.46,6.34-.69,4.39-.48,8.78-.96,13.17-1.43,2.59-.28,5.13-2.1,5-5-.11-2.47-2.22-5.3-5-5-4.88.53-9.76,1.06-14.63,1.59-2.4.26-4.8.5-7.19.79-2.73.33-5.54.9-7.43,3.12s-2.06,6.29,1.01,7.85c5.58,2.84,11.53,4.52,17.78,4.99,2.94.22,6,.18,8.91-.36,3.78-.71,6.48-4.15,6.29-7.98-.38-7.61-8.82-9.52-14.91-10.65-3.16-.59-6.38-.99-9.6-1.13s-6.38.19-9.2,1.68c-6.37,3.36-7.86,12.69-1.41,16.79,2.45,1.56,5.64,2.31,8.44,2.97,3.06.72,6.21,1.18,9.35,1.41,5.28.4,10.7.15,15.52-2.24,5.13-2.55,8.27-8.53,6.12-14.11-2.9-7.55-10.64-9.58-17.96-10.15-6.83-.53-13.87.41-20.35,2.62l6.15,6.15c3.07-9.64,6.15-19.57,6.06-29.79-.08-9.36-2.86-18.64-9.13-25.73-1.74-1.97-5.32-1.91-7.07,0-1.92,2.1-1.85,4.97,0,7.07h0Z"/>
  <path class="cls-1" d="M443.39,411.32c-2.65,0-5.34-.02-8.05-.05-138.09-1.83-191.97-43.51-194.19-45.28l-1.79-1.42v-129.47h395.21v129.43l-1.74,1.42c-2.27,1.85-57.01,45.37-189.43,45.37h-.02Z"/>
  <path class="cls-5" d="M629.74,362.31v-122.47H244.2v122.47s53.21,42.38,191.21,44.22c138,1.83,194.33-44.22,194.33-44.22Z"/>
  <g>
    <path class="cls-1" d="M623.45,278.8c.52.38,1.05.76,1.56,1.16-.13-.1-.81-.64-.1-.07.25.2.5.4.75.6.93.76,1.85,1.56,2.74,2.37,1.8,1.65,3.5,3.4,5.09,5.24.36.42.72.85,1.08,1.28.16.19.31.38.47.58.03.04.78,1.01.29.37s.25.34.28.38c.15.2.29.4.44.6.4.55.79,1.1,1.16,1.66,1.31,1.94,2.51,3.94,3.61,6.01.55,1.04,1.07,2.09,1.56,3.15.21.45.41.9.61,1.36.5,1.12-.28-.72,0,0,.14.35.28.69.42,1.04.9,2.28,1.68,4.6,2.35,6.96s1.21,4.72,1.65,7.11c.1.53.2,1.06.28,1.6-.15-1-.01-.01,0,.25.02.37.03.75,0,1.13.12-1.21,0-.02-.07-.02l-.14.41c.19-.46.21-.53.05-.2-.46.62-.83,1.41-1.22,2.08-3.34,5.65-5.72,11.95-6.89,18.42-.47,2.56.7,5.51,3.49,6.15,2.45.56,5.65-.74,6.15-3.49.52-2.89,1.27-5.72,2.27-8.48.25-.69.52-1.37.79-2.05-.37.91,0,0,.1-.22.15-.33.3-.67.46-1,.63-1.33,1.31-2.62,2.04-3.89.88-1.52,1.82-2.97,2.4-4.65.68-1.95.65-3.95.38-5.97-.37-2.75-.94-5.48-1.64-8.17-2.66-10.32-7.46-19.93-14.21-28.17-3.81-4.65-8.28-8.63-13.13-12.15-2.12-1.54-5.66-.43-6.84,1.79-1.37,2.59-.47,5.2,1.79,6.84h0Z"/>
    <path class="cls-1" d="M648.18,325.61c.41.8.8,1.62,1.17,2.44.21.47.44.93.62,1.41-.31-.79-.1-.23.09.23.67,1.67,1.27,3.37,1.79,5.1s.98,3.47,1.36,5.23c.19.88.36,1.77.52,2.65.07.38.13.76.19,1.14.04.25.08.51.11.76-.09-.69-.1-.75-.03-.18.18,1.38.44,2.51,1.46,3.54.87.87,2.29,1.52,3.54,1.46,2.43-.11,5.35-2.22,5-5-1.07-8.36-3.4-16.29-7.2-23.84-1.18-2.34-4.67-3.19-6.84-1.79-2.39,1.54-3.05,4.34-1.79,6.84h0Z"/>
    <path class="cls-1" d="M652.2,326.62c2.62,0,5.12-2.3,5-5s-2.2-5-5-5c-2.62,0-5.12,2.3-5,5s2.2,5,5,5h0Z"/>
    <path class="cls-1" d="M651.05,314.94c-5.29-1.72-10.85-3.26-16.47-2.87-1.34.09-2.56.49-3.54,1.46-.87.87-1.52,2.29-1.46,3.54.11,2.55,2.21,5.2,5,5,1.81-.13,3.62-.04,5.41.2l-1.33-.18c3.33.48,6.54,1.45,9.73,2.49,2.49.81,5.57-.94,6.15-3.49.62-2.74-.83-5.28-3.49-6.15h0Z"/>
  </g>
  <path class="cls-1" d="M436.98,331.01c-65.48,0-125.15-26.83-163.68-49.34-41.65-24.33-67.51-48.3-68.6-49.31l-3.92-3.66L448.49,12.24l231.01,213.64-3.84,3.55c-1.11,1.02-27.55,25.34-69.92,50.21-39.2,23-99.81,50.58-165.91,51.35-.95.01-1.88.02-2.83.02h-.02Z"/>
  <path class="cls-4" d="M448.4,18.74l-240.39,210.08s105.85,98.8,231.76,97.33c125.91-1.47,232.6-100.27,232.6-100.27L448.4,18.74Z"/>
  <g>
    <path class="cls-1" d="M400.69,212.52c-22.95,0-41.61-18.67-41.61-41.61,0-22.95,18.67-41.61,41.61-41.61,22.95,0,41.61,18.67,41.61,41.61,0,22.95-18.67,41.61-41.61,41.61Z"/>
    <circle class="cls-6" cx="400.69" cy="170.91" r="36.78"/>
    <path class="cls-1" d="M486.39,212.52c-22.95,0-41.62-18.67-41.62-41.61,0-22.95,18.67-41.61,41.62-41.61,22.95,0,41.61,18.67,41.61,41.61,0,22.95-18.67,41.61-41.61,41.61Z"/>
    <circle class="cls-6" cx="486.39" cy="170.91" r="36.78"/>
    <circle class="cls-1" cx="486.39" cy="170.91" r="4.75"/>
    <circle class="cls-1" cx="400.69" cy="170.91" r="4.75"/>
    <g>
      <path class="cls-1" d="M444.04,243.29c-15.03,0-26.81-6.13-26.81-13.96,0-9.48,15.49-9.48,26.81-9.48s26.81,0,26.81,9.48c0,7.83-11.77,13.96-26.81,13.96Z"/>
      <path class="cls-1" d="M444.04,242.37c-14.35,0-25.6-5.73-25.6-13.03,0-8.56,14.19-8.56,25.6-8.56,11.4,0,25.6,0,25.6,8.56,0,7.31-11.24,13.03-25.6,13.03Z"/>
      <g>
        <path class="cls-6" d="M464.98,229.46c0,4.83-9.35,8.74-20.88,8.74-11.53,0-20.88-3.91-20.88-8.74s9.35-5.15,20.88-5.15c11.53,0,20.88.32,20.88,5.15Z"/>
        <rect class="cls-1" x="441.54" y="224.07" width="5.73" height="15.02"/>
      </g>
    </g>
  </g>
  <polygon class="cls-1" points="441.35 5.44 162.49 229.57 227.42 281.63 442.3 37.88 649.54 281.6 727.64 224.31 441.35 5.44"/>
  <rect class="cls-1" x="374.27" y="69.71" width="58.59" height="27.74"/>
  <rect class="cls-1" x="455.22" y="69.71" width="58.59" height="27.74"/>
  <g>
    <path class="cls-1" d="M244.34,268.96c-8.51,6.52-15.6,14.63-20.39,24.27-2.37,4.77-4.26,9.8-5.57,14.96-.64,2.5-1.15,5.04-1.54,7.59-.25,1.66-.58,3.36-.47,5.04.14,2.18.82,4.14,1.95,6,1.68,2.77,3.33,5.5,4.62,8.49-.39-.91,0,0,.08.23.19.48.37.96.54,1.44.25.69.48,1.38.7,2.08.53,1.68.96,3.38,1.32,5.11.53,2.56,3.69,4.29,6.15,3.49,2.71-.88,4.06-3.4,3.49-6.15-1.19-5.72-3.31-11.29-6.2-16.36-.65-1.15-1.39-2.24-2.07-3.37-.19-.31-.35-.65-.54-.95l-.1-.19c.22.53.23.52.05-.03l-.05-.22c-.08-.37-.07-.29.03.22.03-.44.02-.91.04-1.36.04-1.43-.11.55.01-.22.05-.32.1-.65.15-.97.08-.51.17-1.03.26-1.54.23-1.27.48-2.54.77-3.79.54-2.35,1.19-4.68,1.96-6.97.36-1.07.74-2.13,1.15-3.19.1-.25.82-2.16.35-.89.21-.58.5-1.14.76-1.71.99-2.14,2.09-4.23,3.3-6.25.57-.96,1.17-1.9,1.8-2.82s1.31-2.28,2.17-3.02c-.69.6-.31.39-.09.13.24-.29.47-.58.71-.87.48-.58.96-1.15,1.46-1.71.84-.94,1.7-1.86,2.59-2.76.99-.99,2.01-1.95,3.07-2.88.48-.43.98-.84,1.47-1.26.25-.21.5-.41.75-.61.19-.16,1.35-1.05.38-.3,1.08-.83,1.92-1.62,2.3-2.99.33-1.2.18-2.79-.5-3.85-1.32-2.04-4.62-3.49-6.84-1.79h0Z"/>
    <path class="cls-1" d="M217.26,320.02c-3.6,7.63-5.8,15.6-6.65,23.99-.27,2.61,2.49,5.11,5,5,2.94-.13,4.72-2.2,5-5,.05-.52.11-1.04.17-1.56.15-1.33-.18,1.09.03-.23.14-.91.29-1.81.46-2.71.33-1.74.74-3.46,1.21-5.16s1.02-3.39,1.63-5.05c.32-.86.64-1.72,1-2.56-.5,1.14.05-.09.12-.25.21-.48.43-.95.66-1.43,1.11-2.36.74-5.5-1.79-6.84-2.22-1.17-5.65-.73-6.84,1.79h0Z"/>
    <path class="cls-1" d="M221.7,326.43c2.62,0,5.12-2.3,5-5s-2.2-5-5-5c-2.62,0-5.12,2.3-5,5s2.2,5,5,5h0Z"/>
    <path class="cls-1" d="M225.78,324.35c2.35-.82,4.77-1.42,7.24-1.76l-1.33.18c2.48-.32,4.97-.37,7.46-.25,2.62.13,5.12-2.39,5-5-.13-2.82-2.2-4.86-5-5-5.42-.27-10.9.39-16.03,2.19-1.24.43-2.31,1.14-2.99,2.3-.63,1.07-.89,2.65-.5,3.85.79,2.43,3.51,4.42,6.15,3.49h0Z"/>
  </g>
  <path class="cls-1" d="M844.36,458.83c-3.25,0-6.12-1.95-6.98-4.74-.83-2.69.28-5.46,2.98-7.51.68-1.74,1.46-8.11-.13-12.32l-.08-.22c-1.77-4.67-6.31-7.81-11.3-7.81-.32,0-.65.01-.97.04-7.12.57-14.38,1.78-21.58,3.6-16.2,4.09-39.48,4.38-40.46,4.39h-8.29c-5.75,0-10.75,4.09-11.88,9.72-1.23,6.15-2.08,8.24-2.61,9.29-1.73,3.4-4.72,5.13-8.89,5.13-1.09,0-2.13-.1-3.13-.2l-.52-.05c-4.73-.44-7.51-4.23-7.24-9.89.05-1.08-.06-2.22-.34-3.38-1.23-5.13-3.42-15.43-4.26-26.75-.59-8-1.44-19.31-2.1-28.25-.72-9.62,6.2-18.22,15.75-19.58l24.41-3.48c.81-.12,1.64-.18,2.46-.18l43.12-.31,36.58,1.61c.18,0,.36.01.54.01,4.59,0,8.86-2.67,10.88-6.79,3.35-6.84,6.16-9.76,9.42-9.76.85,0,1.66.22,2.4.64,3.42,1.94,3.09,6.66,2.96,8.44-.21,3-.92,6.66-1.74,10.91-.19.98-.39,1.99-.58,3.02-.32,1.71.4,4.48,1.23,7.69,1.33,5.1,2.99,11.45,2.24,19.29-.65,6.84-1.04,12.25-1.35,16.6-.87,12.06-1.27,17.56-5.25,27.32-2.53,6.2-4.23,9.19-6.28,11.02-2.45,2.19-5.03,2.31-7.75,2.44-.27.01-.54.03-.82.04-.14,0-.29.01-.43.01Z"/>
  <path class="cls-1" d="M732.76,373.42c-7.95,1.13-13.66,8.23-13.06,16.24.67,8.94,1.51,20.25,2.1,28.25.84,11.3,3.08,21.65,4.18,26.25.33,1.4.49,2.83.43,4.26-.11,2.34.33,6.23,4.4,6.61,3.45.32,7.35.93,9.44-3.18.79-1.56,1.61-4.91,2.33-8.48,1.43-7.12,7.69-12.25,14.96-12.25h8.26s23.7-.25,39.73-4.3c8.72-2.2,16.35-3.22,22.1-3.68,6.76-.54,13.06,3.45,15.46,9.79.03.07.05.14.08.22,2.17,5.74.79,14.76-.56,15.68-4.56,3.12-1.72,7.05,2.02,6.85,5.69-.3,7.3.25,12.11-11.54,5.18-12.72,3.96-17.42,6.39-43.03,1.21-12.73-4.5-21.64-3.44-27.27,1.81-9.55,3.72-17.45.9-19.05-2.3-1.3-5.18,3.13-7.45,7.76-2.67,5.45-8.31,8.8-14.38,8.54l-36.5-1.61-43.04.31c-.68,0-1.37.06-2.04.15l-24.41,3.48Z"/>
  <path class="cls-1" d="M718.71,370.3c-1.43,0-2.6-1.17-2.6-2.6s1.17-2.6,2.6-2.6,2.6,1.17,2.6,2.6-1.17,2.6-2.6,2.6Z"/>
  <circle class="cls-1" cx="718.71" cy="367.7" r="1.97"/>
  <path class="cls-1" d="M719.28,392.39l-18.94,13.13-4.83-21.56-21.14-6.95,10.03-18.84-12.65-15.17,11.85-10.87c-2.92-3.79-7.22-10.9-9.09-21.57-2.8-15.99-.06-27.57.05-28.06l1.05-4.35,4.2,1.53c.95.35,23.47,8.6,31.9,14.96,5.79,4.37,11.24,13.56,14.45,19.71l8.27-10.77,3.67,8.54,5.88-3.07c3.41-7.39,9.35-16.12,19.22-19.95,16.27-6.31,24.45-9.38,24.53-9.41l4.12-1.55,1.14,4.25c.21.76,4.96,18.82-.1,32.92-3.13,8.71-9.69,14.74-14.55,18.23l18.81,11.49-10.91,13.84,2.77,25.56-16.39-3.43-8.53,24.17-18.32-11.18-11.17,17.38-15.35-18.98Z"/>
  <path class="cls-3" d="M689.19,332.42s-8.05-7.2-10.74-22.56,0-26.43,0-26.43c0,0,22.81,8.32,30.86,14.39s16.1,24.07,16.1,24.07l8.05-10.48,2.68,6.24,5.49-2.87,2.22,7.11s4.36-22.69,20.8-29.07c16.44-6.37,24.49-9.39,24.49-9.39,0,0,4.7,17.45,0,30.53s-18.45,19.58-18.45,19.58l20.54,12.54-9.13,11.58,2.35,21.71-14.43-3.02-8.05,22.81-17.45-10.64-10.29,16.01-14.2-17.56-17.11,11.86-4.03-17.98-18.79-6.18,9.06-17.01-11.93-14.31,11.93-10.94Z"/>
  <path class="cls-1" d="M715.71,351.93c-5.01,0-9.09-4.08-9.09-9.09s4.08-9.09,9.09-9.09,9.09,4.08,9.09,9.09-4.08,9.09-9.09,9.09Z"/>
  <circle class="cls-6" cx="715.71" cy="342.84" r="6.65"/>
  <path class="cls-1" d="M745.3,355.33c-5.01,0-9.09-4.08-9.09-9.09s4.08-9.09,9.09-9.09,9.09,4.08,9.09,9.09-4.08,9.09-9.09,9.09Z"/>
  <path class="cls-1" d="M745.3,353.76c-4.15,0-7.52-3.38-7.52-7.52,0-4.15,3.38-7.52,7.52-7.52,4.15,0,7.52,3.38,7.52,7.52,0,4.15-3.38,7.52-7.52,7.52Z"/>
  <circle class="cls-6" cx="745.3" cy="346.24" r="6.65"/>
  <path class="cls-1" d="M745.3,348.84c-1.43,0-2.6-1.17-2.6-2.6s1.17-2.6,2.6-2.6,2.6,1.17,2.6,2.6-1.17,2.6-2.6,2.6Z"/>
  <circle class="cls-1" cx="745.3" cy="346.24" r="1.97"/>
  <path class="cls-1" d="M717.29,400.08c-.09,0-.19,0-.28,0-1.89-.06-3.52-.69-4.61-1.77-1.22-1.22-2.62-3.65-.67-10.63.98-3.52,2.36-6.57,2.42-6.7l.7-1.53h18.32l-.78,2.64c-.05.17-1.27,4.26-3.43,8.43-3.38,6.53-7.09,9.57-11.66,9.57h0Z"/>
  <path class="cls-2" d="M717.14,381.64s-7.29,16.02,0,16.24,12.17-16.24,12.17-16.24h-12.17Z"/>
  <path class="cls-1" d="M716.1,345.44c-1.43,0-2.6-1.17-2.6-2.6s1.17-2.6,2.6-2.6,2.6,1.17,2.6,2.6-1.17,2.6-2.6,2.6Z"/>
  <circle class="cls-1" cx="716.1" cy="342.84" r="1.97"/>
  <g>
    <path class="cls-1" d="M745.3,348.84c-1.43,0-2.6-1.17-2.6-2.6s1.17-2.6,2.6-2.6,2.6,1.17,2.6,2.6-1.17,2.6-2.6,2.6Z"/>
    <circle class="cls-1" cx="745.3" cy="346.24" r="1.97"/>
  </g>
  <ellipse class="cls-1" cx="726.56" cy="365.73" rx="11.03" ry="13.77" transform="translate(271.19 1039.73) rotate(-82.68)"/>
</svg>